<?xml version="1.0" encoding="UTF-8"?>
<svg xmlns="http://www.w3.org/2000/svg" width="1200" height="650" viewBox="0 0 1200 650" role="img">
<rect width="100%" height="100%" fill="#ffffff"/>
<style>text{font-family:ui-sans-serif,system-ui,sans-serif;fill:#111827}.grid{stroke:#e5e7eb;stroke-width:1}.axis{stroke:#374151;stroke-width:1.5}.tick{font-size:13px;fill:#4b5563}.title{font-size:24px;font-weight:700}.label{font-size:15px;font-weight:600}.legend{font-size:14px}</style>
<text class="title" x="105.0" y="38">Checkpoint write duration</text>
<line class="grid" x1="105.0" y1="70.0" x2="105.0" y2="555.0"/>
<line class="grid" x1="105.0" y1="555.0" x2="1160.0" y2="555.0"/>
<text class="tick" x="105.0" y="578" text-anchor="middle">-117.8</text>
<text class="tick" x="96" y="560.0" text-anchor="end">9.395</text>
<line class="grid" x1="316.0" y1="70.0" x2="316.0" y2="555.0"/>
<line class="grid" x1="105.0" y1="458.0" x2="1160.0" y2="458.0"/>
<text class="tick" x="316.0" y="578" text-anchor="middle">314.7</text>
<text class="tick" x="96" y="463.0" text-anchor="end">18.887</text>
<line class="grid" x1="527.0" y1="70.0" x2="527.0" y2="555.0"/>
<line class="grid" x1="105.0" y1="361.0" x2="1160.0" y2="361.0"/>
<text class="tick" x="527.0" y="578" text-anchor="middle">747.2</text>
<text class="tick" x="96" y="366.0" text-anchor="end">28.378</text>
<line class="grid" x1="738.0" y1="70.0" x2="738.0" y2="555.0"/>
<line class="grid" x1="105.0" y1="264.0" x2="1160.0" y2="264.0"/>
<text class="tick" x="738.0" y="578" text-anchor="middle">1,179.8</text>
<text class="tick" x="96" y="269.0" text-anchor="end">37.869</text>
<line class="grid" x1="949.0" y1="70.0" x2="949.0" y2="555.0"/>
<line class="grid" x1="105.0" y1="167.0" x2="1160.0" y2="167.0"/>
<text class="tick" x="949.0" y="578" text-anchor="middle">1,612.3</text>
<text class="tick" x="96" y="172.0" text-anchor="end">47.360</text>
<line class="grid" x1="1160.0" y1="70.0" x2="1160.0" y2="555.0"/>
<line class="grid" x1="105.0" y1="70.0" x2="1160.0" y2="70.0"/>
<text class="tick" x="1160.0" y="578" text-anchor="middle">2,044.8</text>
<text class="tick" x="96" y="75.0" text-anchor="end">56.851</text>
<line class="axis" x1="105.0" y1="555.0" x2="1160.0" y2="555.0"/>
<line class="axis" x1="105.0" y1="70.0" x2="105.0" y2="555.0"/>
<text class="label" x="632.5" y="620" text-anchor="middle">Optimizer step</text>
<text class="label" x="24" y="312.5" text-anchor="middle" transform="rotate(-90 24 312.5)">Seconds</text>
<polyline points="169.78,326.23 192.22,426.89 211.25,369.92 233.69,367.01 256.62,376.64 260.03,460.17 282.47,99.78 305.40,356.60 308.82,460.57 331.26,441.15 354.67,374.80 357.60,394.62 380.53,446.49 403.46,523.29 406.38,480.19 429.31,486.08 452.24,486.89 455.17,525.22 478.10,459.38 501.03,473.69 503.95,488.39 526.88,524.76 549.81,479.24 552.74,454.78 575.18,491.33 598.11,520.31 601.52,471.41 623.96,454.64 646.89,471.36 650.31,507.11 672.75,418.12 695.68,466.63 699.09,483.66 721.53,462.67 744.46,435.58 747.87,469.12 770.32,462.73 793.24,430.47 796.66,470.49 819.10,148.73 842.52,499.78 845.44,495.51 868.37,477.22 891.79,460.35 894.23,492.03 917.16,494.24 940.09,460.78 943.01,470.74 965.94,500.62 989.36,493.98 991.80,472.02 1014.73,470.75 1038.14,487.77 1040.58,493.13 1063.51,464.09 1086.93,436.92 1089.37,479.85 1095.22,488.61" fill="none" stroke="#2563eb" stroke-width="2" stroke-linejoin="round" stroke-linecap="round"/>
<line x1="105.0" y1="602" x2="129.0" y2="602" stroke="#2563eb" stroke-width="4"/>
<text class="legend" x="135.0" y="607">checkpoint</text>
</svg>
